<svg width="428" height="926" viewBox="0 0 428 926" fill="none" xmlns="http://www.w3.org/2000/svg">
<g clip-path="url(#clip0_5_2)">
<rect x="-14.5897" y="726" width="75" height="632" transform="rotate(14.1417 -14.5897 726)" fill="#E35200"/>
<rect x="63.1374" y="724.324" width="75" height="702.57" transform="rotate(14.1417 63.1374 724.324)" fill="#E35200" fill-opacity="0.9"/>
<rect x="140.865" y="722.648" width="75" height="702.907" transform="rotate(14.1417 140.865 722.648)" fill="#E35200" fill-opacity="0.8"/>
<rect x="218.592" y="720.972" width="75" height="663.212" transform="rotate(14.1417 218.592 720.972)" fill="#E35200" fill-opacity="0.7"/>
<rect x="296.319" y="719.296" width="75" height="624.25" transform="rotate(14.1417 296.319 719.296)" fill="#E35200" fill-opacity="0.6"/>
<rect x="451.773" y="715.944" width="75" height="565.536" transform="rotate(14.1417 451.773 715.944)" fill="#E35200" fill-opacity="0.4"/>
<rect x="524.5" y="734.268" width="75" height="539.706" transform="rotate(14.1417 524.5 734.268)" fill="#E35200" fill-opacity="0.3"/>
<rect x="374.046" y="717.62" width="75" height="590.899" transform="rotate(14.1417 374.046 717.62)" fill="#E35200" fill-opacity="0.5"/>
</g>
<defs>
<clipPath id="clip0_5_2">
<rect width="428" height="926" fill="white"/>
</clipPath>
</defs>
</svg>
