<svg width="375" height="148" fill="none" xmlns="http://www.w3.org/2000/svg">
<g clip-path="url(#clip0_2459_18883)">
<path fill-rule="evenodd" clip-rule="evenodd" d="M375.781 129.506C288.201 80.2846 218.278 66.9064 154.291 108.441C90.3062 149.977 32.1014 141.861 0 136.786C0 111.952 0.0731947 66.3571 0.219584 0H376C375.855 67.3686 375.781 110.538 375.781 129.506" fill="url(#paint0_linear_2459_18883)"/>
<path fill-rule="evenodd" clip-rule="evenodd" d="M104.715 24.916C113.348 18.191 122.993 9.582 133.611 0H0.122C0.073 22.31 0.032 42.261 0 59.875C35.804 59.734 72.32 50.15 104.715 24.916" fill="#644FBB"/>
<path fill-rule="evenodd" clip-rule="evenodd" d="M196.28 72.9678C165.162 88.2928 120.508 119.672 67.54 139.452C93.3841 137.981 122.909 131.566 154.288 115.014C221.333 79.6499 291.53 96.1495 377.759 147.28C378.453 134.811 379.804 111.183 381.811 76.4303C328.027 54.0707 258.567 42.2896 196.28 72.9678" fill="#D2CCEB"/>
<path fill-rule="evenodd" clip-rule="evenodd" d="M192.72 60.9157C163.017 78.9999 120.905 114.903 70 139C95.2845 135.916 123.912 127.372 153.804 107.972C217.674 66.5218 287.471 79.8725 374.893 128.993C374.893 115.732 374.929 90.6023 375 53.6384C320.992 33.1062 252.177 24.7146 192.72 60.9157" fill="#644FBB"/>
</g>
<defs>
<linearGradient id="paint0_linear_2459_18883" x1="328.875" y1="27.0127" x2="10.1171" y2="110.895" gradientUnits="userSpaceOnUse">
<stop stop-color="#634EBA"/>
<stop offset="0.745073" stop-color="#9777E3"/>
</linearGradient>
<clipPath id="clip0_2459_18883">
<rect width="375" height="148" fill="white"/>
</clipPath>
</defs>
</svg>
