<svg width="428" height="926" viewBox="0 0 428 926" fill="none" xmlns="http://www.w3.org/2000/svg">
<g clip-path="url(#clip0_2_2)">
<path fill-rule="evenodd" clip-rule="evenodd" d="M88.1374 -215.676L15.4103 -234L-139 378.847L-66.2729 397.171L-83.5146 465.603L-10.7875 483.927L-10.8699 484.253L61.8572 502.577L71.5556 464.085L144.283 482.409L153.802 444.628L226.529 462.952L234.677 430.612L307.404 448.936L313.601 424.341L386.328 442.665L392.639 417.618L465.366 435.942L597.227 -87.408L524.5 -105.732L451.773 -124.056L379.046 -142.38L306.319 -160.704L233.592 -179.028L160.864 -197.352L88.1374 -215.676Z" fill="white"/>
<rect x="15.4103" y="-234" width="75" height="632" transform="rotate(14.1417 15.4103 -234)" fill="#E35200"/>
<rect x="88.1374" y="-215.676" width="75" height="702.57" transform="rotate(14.1417 88.1374 -215.676)" fill="#E35200" fill-opacity="0.9"/>
<rect x="160.864" y="-197.352" width="75" height="702.907" transform="rotate(14.1417 160.864 -197.352)" fill="#E35200" fill-opacity="0.8"/>
<rect x="233.592" y="-179.028" width="75" height="663.212" transform="rotate(14.1417 233.592 -179.028)" fill="#E35200" fill-opacity="0.7"/>
<rect x="306.319" y="-160.704" width="75" height="624.25" transform="rotate(14.1417 306.319 -160.704)" fill="#E35200" fill-opacity="0.6"/>
<rect x="451.773" y="-124.056" width="75" height="565.536" transform="rotate(14.1417 451.773 -124.056)" fill="#E35200" fill-opacity="0.4"/>
<rect x="524.5" y="-105.732" width="75" height="539.706" transform="rotate(14.1417 524.5 -105.732)" fill="#E35200" fill-opacity="0.3"/>
<rect x="379.046" y="-142.38" width="75" height="590.899" transform="rotate(14.1417 379.046 -142.38)" fill="#E35200" fill-opacity="0.5"/>
<path fill-rule="evenodd" clip-rule="evenodd" d="M88.1374 -215.676L15.4103 -234L-139 378.847L-66.2729 397.171L-83.5146 465.603L-10.7875 483.927L-10.8699 484.253L61.8572 502.577L71.5556 464.085L144.283 482.409L153.802 444.628L226.529 462.952L234.677 430.612L307.404 448.936L313.601 424.341L386.328 442.665L392.639 417.618L465.366 435.942L597.227 -87.408L524.5 -105.732L451.773 -124.056L379.046 -142.38L306.319 -160.704L233.592 -179.028L160.865 -197.352L88.1374 -215.676Z" fill="url(#paint0_linear_2_2)"/>
</g>
<defs>
<linearGradient id="paint0_linear_2_2" x1="229" y1="60.5" x2="229" y2="407" gradientUnits="userSpaceOnUse">
<stop stop-color="#B13F00" stop-opacity="0.44"/>
<stop offset="1" stop-color="#E67537" stop-opacity="0"/>
</linearGradient>
<clipPath id="clip0_2_2">
<rect width="428" height="926" fill="white"/>
</clipPath>
</defs>
</svg>
